# xmcd
#
# Track frame offsets:
#	150
#	17325
#	27052
#	42570
#	60415
#	73332
#	85462
#	96615
#	110747
#	126005
#	135942
#	159575
#	174752
#	185882
#	202387
#	216710
#
# Disc length: 3048 seconds
# Revision: 0
# Processed by: cddbd v1.5.2PL0 Copyright (c) Steve Scherf et al.
# Submitted via: dBpowerAMP V12.0
#
DISCID=f20be610
DTITLE=GrassRoutes - Twentieth Anniversary
DYEAR=1900
DGENRE=Bluegrass
TTITLE0=Don't Close Your Eyes
TTITLE1=If I Lose
TTITLE2=Little Hands
TTITLE3=West Texas Wind
TTITLE4=Walking the Dog
TTITLE5=Black Diamond
TTITLE6=Steel Rails
TTITLE7=Ride Me Down Easy
TTITLE8=Hard Rock Bottom of Your Heart
TTITLE9=Old Train
TTITLE10=This Old House
TTITLE11=Loving Arms
TTITLE12=Longing for the Old Days
TTITLE13=On the Lonely Side of Town
TTITLE14=Grapes on the Vine
TTITLE15=Silence and Pain
EXTD=
EXTT0=
EXTT1=
EXTT2=
EXTT3=
EXTT4=
EXTT5=
EXTT6=
EXTT7=
EXTT8=
EXTT9=
EXTT10=
EXTT11=
EXTT12=
EXTT13=
EXTT14=
EXTT15=
PLAYORDER=
